<?xml version="1.0" encoding="utf-8"?>
<!-- Generator: Adobe Illustrator 16.0.4, SVG Export Plug-In . SVG Version: 6.00 Build 0)  -->
<!DOCTYPE svg PUBLIC "-//W3C//DTD SVG 1.1//EN" "http://www.w3.org/Graphics/SVG/1.1/DTD/svg11.dtd">
<svg version="1.1" xmlns="http://www.w3.org/2000/svg" xmlns:xlink="http://www.w3.org/1999/xlink" x="0px" y="0px" width="976px"
	 height="1288px" viewBox="0 0 976 1288" enable-background="new 0 0 976 1288" xml:space="preserve">
<g id="BACKGROUND">
	<rect y="40.5" fill="#FFFFFF" width="976" height="1200.205"/>
	<rect fill="#FFFFFF" width="976" height="1288"/>
</g>
<g id="cat_evolution_line">
	<line fill="none" stroke="#00807F" stroke-width="4" stroke-miterlimit="10" x1="444.602" y1="108" x2="7.602" y2="108"/>
</g>
<g id="graph_1_">
	<path fill="none" stroke="#008080" stroke-miterlimit="10" d="M6.73,678.422c0,0,48.871,3.812,48.871-132.003
		c0-162.568,0.929-249.995,99.72-252.36"/>
	<path opacity="0.7" fill="none" stroke="#D7D7D6" stroke-width="20" stroke-miterlimit="10" d="M156.602,302.867
		c0,0,150.625-0.278,259.059-12.927c119.342-13.922,175.444-25.554,356.891-25.658"/>
	<path opacity="0.7" fill="none" stroke="#D7D7D6" stroke-width="20" stroke-miterlimit="10" d="M156.602,322.16
		c0,0,150.625-0.232,259.059-10.784c119.342-11.614,175.444-21.318,356.891-21.405"/>
	<path opacity="0.7" fill="none" stroke="#D7D7D6" stroke-width="20" stroke-miterlimit="10" d="M156.602,341.624
		c0,0,150.625-0.178,259.059-8.271c119.342-8.907,175.444-16.35,356.891-16.417"/>
	<path opacity="0.7" fill="none" stroke="#BFDEDD" stroke-width="20" stroke-miterlimit="10" d="M156.602,448.146
		c0,0,150.625-0.764,259.059-35.435c119.342-38.161,175.444-70.046,356.891-70.335"/>
	<path opacity="0.7" fill="none" stroke="#BFDEDD" stroke-width="20" stroke-miterlimit="10" d="M156.602,467.572
		c0,0,150.625-0.721,259.059-33.471c119.342-36.046,175.444-66.164,356.891-66.437"/>
	<path opacity="0.7" fill="none" stroke="#BFDEDD" stroke-width="20" stroke-miterlimit="10" d="M156.602,767.756
		c0,0,150.625-1.391,259.059-64.594c119.342-69.565,175.444-127.69,356.891-128.216"/>
	<path opacity="0.7" fill="none" stroke="#BFDEDD" stroke-width="20" stroke-miterlimit="10" d="M156.602,787.207
		c0,0,150.625-1.336,259.059-62.055c119.342-66.828,175.444-122.668,356.891-123.173"/>
	<path opacity="0.7" fill="none" stroke="#D7D7D6" stroke-width="20" stroke-miterlimit="10" d="M156.602,832.869
		c0,0,150.625-1.471,259.059-68.211c119.342-73.455,175.444-134.833,356.891-135.389"/>
	<path opacity="0.7" fill="none" stroke="#D7D7D6" stroke-width="20" stroke-miterlimit="10" d="M156.602,852.746
		c0,0,150.625-1.43,259.059-66.371c119.342-71.477,175.444-131.199,356.891-131.74"/>
	<path opacity="0.7" fill="none" stroke="#BFDEDD" stroke-width="20" stroke-miterlimit="10" d="M156.602,937.803
		c0,0,150.625-3.539,259.059-164.285c119.342-176.926,175.444-324.758,356.891-326.097"/>
	<path opacity="0.7" fill="none" stroke="#BFDEDD" stroke-width="20" stroke-miterlimit="10" d="M156.602,957.477
		c0,0,150.625-3.5,259.059-162.367c119.342-174.858,175.444-320.963,356.891-322.285"/>
	<path opacity="0.7" fill="none" stroke="#BFDEDD" stroke-width="20" stroke-miterlimit="10" d="M156.602,977.256
		c0,0,150.625-1.963,259.059-91.086c119.342-98.096,175.444-180.061,356.891-180.803"/>
	<path opacity="0.7" fill="none" stroke="#BFDEDD" stroke-width="20" stroke-miterlimit="10" d="M156.602,996.133
		c0,0,150.625-1.92,259.059-89.131c119.342-95.99,175.444-176.195,356.891-176.922"/>
	<path opacity="0.7" fill="none" stroke="#BFDEDD" stroke-width="20" stroke-miterlimit="10" d="M156.602,1015.691
		c0,0,150.625-1.863,259.059-86.486c119.342-93.139,175.444-170.965,356.891-171.668"/>
	<path opacity="0.7" fill="none" stroke="#BFDEDD" stroke-width="20" stroke-miterlimit="10" d="M156.602,1035.234
		c0,0,150.625-1.818,259.059-84.342c119.342-90.832,175.444-166.729,356.891-167.416"/>
	<path opacity="0.7" fill="none" stroke="#BFDEDD" stroke-width="20" stroke-miterlimit="10" d="M156.602,1055.02
		c0,0,150.625-1.389,259.059-64.416C535.002,921.23,591.104,863.266,772.551,862.74"/>
	<path opacity="0.7" fill="none" stroke="#D7D7D6" stroke-width="20" stroke-miterlimit="10" d="M156.602,872.436
		c0,0,150.625-0.443,259.059-20.561c119.342-22.145,175.444-40.646,356.891-40.812"/>
	<path opacity="0.7" fill="none" stroke="#D7D7D6" stroke-width="20" stroke-miterlimit="10" d="M156.602,552.49
		c0,0,150.625-2.266,259.059-105.149C535.002,334.103,591.104,239.485,772.551,238.63"/>
	<path opacity="0.7" fill="none" stroke="#D7D7D6" stroke-width="20" stroke-miterlimit="10" d="M156.602,401.168
		c0,0,150.625,0.891,259.059,41.361c119.342,44.542,175.444,81.76,356.891,82.097"/>
	<path opacity="0.7" fill="none" stroke="#D7D7D6" stroke-width="20" stroke-miterlimit="10" d="M156.602,361.253
		c0,0,150.625,0.237,259.059,11.013c119.342,11.86,175.444,21.77,356.891,21.859"/>
	<path opacity="0.7" fill="none" stroke="#D7D7D6" stroke-width="20" stroke-miterlimit="10" d="M156.602,381.203
		c0,0,150.625,0.284,259.059,13.166c119.342,14.177,175.444,26.024,356.891,26.131"/>
	<path opacity="0.7" fill="none" stroke="#BFDEDD" stroke-width="20" stroke-miterlimit="10" d="M156.602,486.767
		c0,0,150.625,0.099,259.059,4.582c119.342,4.933,175.444,9.055,356.891,9.092"/>
	<path opacity="0.7" fill="none" stroke="#D7D7D6" stroke-width="20" stroke-miterlimit="10" d="M156.602,420.882
		c0,0,150.625,0.942,259.059,43.705c119.342,47.065,175.444,86.391,356.891,86.747"/>
	<path opacity="0.7" fill="none" stroke="#BFDEDD" stroke-width="20" stroke-miterlimit="10" d="M156.602,506.577
		c0,0,150.625,2.762,259.059,128.175C535.002,772.783,591.104,888.115,772.551,889.16"/>
	<path opacity="0.7" fill="none" stroke="#D7D7D6" stroke-width="20" stroke-miterlimit="10" d="M156.602,571.962
		c0,0,150.625,0.781,259.059,36.243c119.342,39.03,175.444,71.641,356.891,71.938"/>
	<path opacity="0.7" fill="none" stroke="#D7D7D6" stroke-width="20" stroke-miterlimit="10" d="M156.602,591.228
		c0,0,150.625,1.767,259.059,81.95c119.342,88.254,175.444,161.992,356.891,162.66"/>
	<path opacity="0.7" fill="none" stroke="#D7D7D6" stroke-width="20" stroke-miterlimit="10" d="M156.602,610.965
		c0,0,150.625,2.195,259.059,101.834c119.342,109.668,175.444,201.299,356.891,202.129"/>
	<path opacity="0.7" fill="none" stroke="#BFDEDD" stroke-width="20" stroke-miterlimit="10" d="M156.602,806.143
		c0,0,150.625,2.283,259.059,105.947c119.342,114.1,175.444,209.43,356.891,210.293"/>
	<path opacity="0.7" fill="none" stroke="#D7D7D6" stroke-width="20" stroke-miterlimit="10" d="M156.602,891.955
		c0,0,150.625,0.352,259.059,16.307c119.342,17.562,175.444,32.236,356.891,32.369"/>
	<path opacity="0.7" fill="none" stroke="#D7D7D6" stroke-width="20" stroke-miterlimit="10" d="M156.602,911.803
		c0,0,150.625,1.701,259.059,78.867c119.342,84.941,175.444,155.906,356.891,156.549"/>
	<path opacity="0.7" fill="none" stroke="#BFDEDD" stroke-width="20" stroke-miterlimit="10" d="M156.602,638.119
		c0,0,150.625,2.363,259.059,109.68c119.342,118.117,175.444,216.809,356.891,217.703"/>
	<path opacity="0.7" fill="none" stroke="#BFDEDD" stroke-width="20" stroke-miterlimit="10" d="M156.602,657.111
		c0,0,150.625,2.42,259.059,112.238c119.342,120.871,175.444,221.865,356.891,222.779"/>
	<path opacity="0.7" fill="none" stroke="#BFDEDD" stroke-width="20" stroke-miterlimit="10" d="M156.602,676.695
		c0,0,150.625,2.471,259.059,114.607c119.342,123.426,175.444,226.549,356.891,227.484"/>
	<path opacity="0.7" fill="none" stroke="#D7D7D6" stroke-width="20" stroke-miterlimit="10" d="M156.602,702.758
		c0,0,150.625,2.471,259.059,114.607c119.342,123.424,175.444,226.547,356.891,227.482"/>
	<path opacity="0.7" fill="none" stroke="#D7D7D6" stroke-width="20" stroke-miterlimit="10" d="M156.602,722.803
		c0,0,150.625,2.502,259.059,116.066c119.342,124.996,175.444,229.432,356.891,230.379"/>
	<path opacity="0.7" fill="none" stroke="#D7D7D6" stroke-width="20" stroke-miterlimit="10" d="M156.602,742.705
		c0,0,150.625,2.562,259.059,118.859c119.342,128.006,175.444,234.955,356.891,235.924"/>
	<path fill="none" stroke="#008080" stroke-width="20" stroke-miterlimit="10" d="M772.551,213.042
		c-181.446,0.873-237.549,97.346-356.891,212.807C307.227,530.751,156.602,533.062,156.602,533.062"/>
	<g>
		<path fill="#008080" d="M160.393,542.928c0,0-0.897,0.023-2.58,0.066c-0.769,0.029-1.717,0.065-2.831,0.108
			c-1.126,0.072-2.441,0.129-3.888,0.258c-2.903,0.233-6.401,0.615-10.318,1.312c-3.907,0.713-8.234,1.747-12.692,3.395
			c-4.46,1.642-9.04,3.912-13.424,7.057c-4.38,3.145-8.548,7.196-12.308,12.083c-3.766,4.878-7.136,10.543-10.185,16.627
			c-3.054,6.085-5.811,12.573-8.431,19.171c-2.62,6.6-5.109,13.312-7.574,19.937c-1.248,3.327-2.415,6.572-3.713,9.888
			c-1.341,3.38-2.825,6.604-4.496,9.685c-3.326,6.16-7.326,11.695-11.771,16.297c-4.431,4.619-9.276,8.287-14.047,11.066
			c-4.782,2.773-9.475,4.676-13.721,5.963c-4.248,1.291-8.051,1.984-11.188,2.373c-3.141,0.387-5.622,0.463-7.309,0.461
			c-1.688-0.004-2.582-0.092-2.582-0.092s0.899,0.008,2.572-0.137c1.672-0.146,4.12-0.443,7.172-1.098
			c3.049-0.656,6.707-1.67,10.708-3.287c3.999-1.609,8.335-3.844,12.625-6.869c4.28-3.033,8.497-6.873,12.218-11.516
			c3.736-4.63,6.957-10.049,9.511-15.986c1.282-2.963,2.39-6.08,3.327-9.236c0.945-3.232,1.869-6.675,2.814-10.061
			c1.887-6.813,3.802-13.758,5.891-20.712c2.092-6.953,4.358-13.92,7.07-20.732c2.71-6.806,5.895-13.47,9.841-19.623
			c1.97-3.074,4.143-6.004,6.474-8.742c2.347-2.727,4.865-5.249,7.494-7.52c5.273-4.538,10.967-8.002,16.406-10.559
			c5.448-2.571,10.638-4.286,15.242-5.547c4.61-1.241,8.653-2.036,11.976-2.595c1.665-0.293,3.142-0.488,4.438-0.682
			c1.314-0.165,2.434-0.304,3.34-0.417c1.673-0.188,2.564-0.288,2.564-0.288L160.393,542.928z"/>
	</g>
	<path fill="none" stroke="#008080" stroke-miterlimit="10" d="M6.73,680.26c0,0,48.871-3.812,48.871,132.002
		c0,162.568,0.929,249.996,99.72,252.361"/>
	<g>
		<g>
			
				<line fill="none" stroke="#008080" stroke-width="3" stroke-linecap="round" stroke-linejoin="round" x1="772.602" y1="168.006" x2="772.602" y2="168.006"/>
			
				<line fill="none" stroke="#008080" stroke-width="3" stroke-linecap="round" stroke-linejoin="round" stroke-dasharray="0,7" x1="772.102" y1="175" x2="772.102" y2="1151"/>
			
				<line fill="none" stroke="#008080" stroke-width="3" stroke-linecap="round" stroke-linejoin="round" x1="772.602" y1="1154.249" x2="772.602" y2="1154.249"/>
			<g>
				<polygon fill="#008080" points="767.693,171.982 768.572,172.801 772.601,168.467 776.629,172.801 777.508,171.982 
					772.601,166.705 				"/>
			</g>
			<g>
				<rect x="768.602" y="1150" fill="#008080" width="8" height="8"/>
			</g>
		</g>
	</g>
	<g>
		<g>
			
				<line fill="none" stroke="#008080" stroke-width="3" stroke-linecap="round" stroke-linejoin="round" x1="156.602" y1="265.583" x2="156.602" y2="265.583"/>
			
				<line fill="none" stroke="#008080" stroke-width="3" stroke-linecap="round" stroke-linejoin="round" stroke-dasharray="0,7" x1="156.102" y1="273" x2="156.102" y2="1061"/>
			
				<line fill="none" stroke="#008080" stroke-width="3" stroke-linecap="round" stroke-linejoin="round" x1="156.602" y1="1064.485" x2="156.602" y2="1064.485"/>
			<g>
				<polygon fill="#008080" points="151.694,269.559 152.573,270.378 156.601,266.043 160.629,270.378 161.508,269.559 
					156.601,264.282 				"/>
			</g>
			<g>
				<rect x="152.602" y="1060" fill="#008080" width="8" height="8"/>
			</g>
		</g>
	</g>
	<circle fill="#BEDFDE" cx="758.906" cy="238.63" r="3.75"/>
	<circle fill="#BEDFDE" cx="758.906" cy="264.282" r="3.75"/>
	<circle fill="#BEDFDE" cx="758.906" cy="289.971" r="3.75"/>
	<circle fill="#BEDFDE" cx="758.906" cy="316.936" r="3.75"/>
	<circle fill="#43A09E" cx="758.906" cy="628.799" r="3.75"/>
	<circle fill="#43A09E" cx="758.906" cy="654.164" r="3.75"/>
	<circle fill="#43A09E" cx="758.906" cy="679.816" r="3.75"/>
	<circle fill="#43A09E" cx="758.906" cy="705.506" r="3.75"/>
	<circle fill="#43A09E" cx="758.906" cy="732.471" r="3.75"/>
	<circle fill="#43A09E" cx="758.906" cy="759.227" r="3.75"/>
	<circle fill="#43A09E" cx="758.906" cy="784.592" r="3.75"/>
	<circle fill="#43A09E" cx="758.906" cy="810.242" r="3.75"/>
	<circle fill="#43A09E" cx="758.906" cy="835.934" r="3.75"/>
	<circle fill="#43A09E" cx="758.906" cy="862.896" r="3.75"/>
	<circle fill="#006867" cx="758.906" cy="940.766" r="3.75"/>
	<circle fill="#006867" cx="758.906" cy="966.416" r="3.75"/>
	<circle fill="#006867" cx="758.906" cy="992.105" r="3.75"/>
	<circle fill="#006867" cx="758.906" cy="1019.07" r="3.75"/>
	<circle fill="#7CC0BE" cx="758.906" cy="343.426" r="3.75"/>
	<circle fill="#7CC0BE" cx="758.906" cy="368.791" r="3.75"/>
	<circle fill="#7CC0BE" cx="758.906" cy="394.442" r="3.75"/>
	<circle fill="#7CC0BE" cx="758.906" cy="420.132" r="3.75"/>
	<circle fill="#7CC0BE" cx="758.906" cy="447.097" r="3.75"/>
	<circle fill="#7CC0BE" cx="758.906" cy="472.791" r="3.75"/>
	<circle fill="#7CC0BE" cx="758.906" cy="498.156" r="3.75"/>
	<circle fill="#7CC0BE" cx="758.906" cy="523.808" r="3.75"/>
	<circle fill="#7CC0BE" cx="758.906" cy="549.497" r="3.75"/>
	<circle fill="#7CC0BE" cx="758.906" cy="576.462" r="3.75"/>
	<circle fill="#7CC0BE" cx="758.906" cy="601.979" r="3.75"/>
	<circle fill="#004B4B" cx="758.906" cy="1043.713" r="3.75"/>
	<circle fill="#004B4B" cx="758.906" cy="1069.363" r="3.75"/>
	<circle fill="#004B4B" cx="758.906" cy="1095.053" r="3.75"/>
	<circle fill="#004B4B" cx="758.906" cy="1122.018" r="3.75"/>
	<circle fill="#004B4B" cx="758.906" cy="1147.535" r="3.75"/>
	<circle fill="#0C8080" cx="758.906" cy="889.197" r="3.75"/>
	<circle fill="#0C8080" cx="758.906" cy="914.715" r="3.75"/>
	<circle fill="#004B4B" cx="772.551" cy="213.042" r="9.895"/>
	<circle fill="#004B4B" cx="155.961" cy="533.384" r="9.895"/>
	<circle fill="#004B4B" cx="11.22" cy="677.92" r="9.895"/>
	<circle fill="#004B4B" cx="11.22" cy="107.416" r="9.895"/>
	<circle fill="#004B4B" cx="309.29" cy="107.416" r="9.895"/>
	<circle fill="#004B4B" cx="446.172" cy="107.416" r="9.895"/>
</g>
<g id="text">
	<rect x="797" y="203.738" fill="none" width="181" height="954.273"/>
	<text transform="matrix(1 0 0 1 797 215.1943)"><tspan x="0" y="0" fill="#008080" font-family="'Arial-BoldMT'" font-size="16">Domestic cat</tspan><tspan x="0" y="26" fill="#414141" font-family="'ArialMT'" font-size="16">Wildcat</tspan><tspan x="0" y="52" fill="#414141" font-family="'ArialMT'" font-size="16">Geoffrey’s cat</tspan><tspan x="0" y="78" fill="#414141" font-family="'ArialMT'" font-size="16">Kodkod</tspan><tspan x="0" y="104" fill="#414141" font-family="'ArialMT'" font-size="16">Tigrina</tspan><tspan x="0" y="130" fill="#414141" font-family="'ArialMT'" font-size="16">Iberian lynx</tspan><tspan x="0" y="156" fill="#414141" font-family="'ArialMT'" font-size="16">Eurasian lynx</tspan><tspan x="0" y="182" fill="#414141" font-family="'ArialMT'" font-size="16">Margay</tspan><tspan x="0" y="208" fill="#414141" font-family="'ArialMT'" font-size="16">Ocelot</tspan><tspan x="0" y="234" fill="#414141" font-family="'ArialMT'" font-size="16">Clouded leopard</tspan><tspan x="0" y="260" fill="#414141" font-family="'ArialMT'" font-size="16">Bornean clouded leopard</tspan><tspan x="0" y="286" fill="#414141" font-family="'ArialMT'" font-size="16">Canada lynx</tspan><tspan x="0" y="312" fill="#414141" font-family="'ArialMT'" font-size="16">Andean mountain cat</tspan><tspan x="0" y="338" fill="#414141" font-family="'ArialMT'" font-size="16">Pampas cat</tspan><tspan x="0" y="364" fill="#414141" font-family="'ArialMT'" font-size="16">Caracal</tspan><tspan x="0" y="390" fill="#414141" font-family="'ArialMT'" font-size="16">African golden cat</tspan><tspan x="0" y="416" fill="#414141" font-family="'ArialMT'" font-size="16">Asian leopard cat</tspan><tspan x="0" y="442" fill="#414141" font-family="'ArialMT'" font-size="16">Fishing cat</tspan><tspan x="0" y="468" fill="#414141" font-family="'ArialMT'" font-size="16">Sand cat</tspan><tspan x="0" y="494" fill="#414141" font-family="'ArialMT'" font-size="16">Tiger</tspan><tspan x="0" y="520" fill="#414141" font-family="'ArialMT'" font-size="16">Snow leopard</tspan><tspan x="0" y="546" fill="#414141" font-family="'ArialMT'" font-size="16">Lion</tspan><tspan x="0" y="572" fill="#414141" font-family="'ArialMT'" font-size="16">Leopard</tspan><tspan x="0" y="598" fill="#414141" font-family="'ArialMT'" font-size="16">Flat-headed cat</tspan><tspan x="0" y="624" fill="#414141" font-family="'ArialMT'" font-size="16">Black-footed cat</tspan><tspan x="0" y="650" fill="#414141" font-family="'ArialMT'" font-size="16">Jaguar</tspan><tspan x="0" y="676" fill="#414141" font-family="'ArialMT'" font-size="16">Bobcat</tspan><tspan x="0" y="702" fill="#414141" font-family="'ArialMT'" font-size="16">Jungle cat</tspan><tspan x="0" y="728" fill="#414141" font-family="'ArialMT'" font-size="16">Rusty-spotted cat</tspan><tspan x="0" y="754" fill="#414141" font-family="'ArialMT'" font-size="16">Puma</tspan><tspan x="0" y="780" fill="#414141" font-family="'ArialMT'" font-size="16">Jaguarundi</tspan><tspan x="0" y="806" fill="#414141" font-family="'ArialMT'" font-size="16">Cheetah</tspan><tspan x="0" y="832" fill="#414141" font-family="'ArialMT'" font-size="16">Asian golden cat</tspan><tspan x="0" y="858" fill="#414141" font-family="'ArialMT'" font-size="16">Bornean bay cat</tspan><tspan x="0" y="884" fill="#414141" font-family="'ArialMT'" font-size="16">Marbled cat</tspan><tspan x="0" y="910" fill="#414141" font-family="'ArialMT'" font-size="16">Serval</tspan><tspan x="0" y="936" fill="#414141" font-family="'ArialMT'" font-size="16">Pallas’s cat</tspan></text>
	<rect x="180.022" y="564.919" fill="none" width="249.579" height="49.085"/>
	<text transform="matrix(1 0 0 1 180.0225 576.3745)" fill="#0C8080" font-family="'Arial-BoldMT'" font-size="16">Domestic cat ancestor</text>
	<rect x="180.022" y="470.581" fill="none" width="155.579" height="46.046"/>
	<text transform="matrix(1 0 0 1 180.0225 482.0361)" fill="#414141" font-family="'Arial-BoldMT'" font-size="16">Lynx</text>
	<rect x="180.022" y="349.18" fill="none" width="230.246" height="46.938"/>
	<text transform="matrix(1 0 0 1 180.0225 360.6357)" fill="#414141" font-family="'Arial-BoldMT'" font-size="16">Ocelot</text>
	<rect x="555.602" y="312.41" fill="none" width="189.668" height="16.869"/>
	<text transform="matrix(1 0 0 1 562.0977 323.8662)" fill="#414141" font-family="'ArialMT'" font-size="16">1 million years ago (MYA)</text>
	<rect x="641.022" y="597.454" fill="none" width="104.247" height="16.55"/>
	<text transform="matrix(1 0 0 1 697.2539 608.9097)" fill="#414141" font-family="'ArialMT'" font-size="16">2 MYA</text>
	<rect x="641.022" y="858.371" fill="none" width="104.247" height="16.551"/>
	<text transform="matrix(1 0 0 1 697.2539 869.8262)" fill="#414141" font-family="'ArialMT'" font-size="16">3 MYA</text>
	<rect x="641.022" y="911.018" fill="none" width="104.247" height="16.551"/>
	<text transform="matrix(1 0 0 1 697.2539 922.4727)" fill="#414141" font-family="'ArialMT'" font-size="16">4 MYA</text>
	<rect x="644.022" y="1014.545" fill="none" width="104.247" height="16.551"/>
	<text transform="matrix(1 0 0 1 700.2539 1026)" fill="#414141" font-family="'ArialMT'" font-size="16">5 MYA</text>
	<rect x="644.022" y="1143.01" fill="none" width="104.247" height="16.551"/>
	<text transform="matrix(1 0 0 1 700.2539 1154.4648)" fill="#414141" font-family="'ArialMT'" font-size="16">6 MYA</text>
	<rect x="180.022" y="651.589" fill="none" width="155.579" height="46.046"/>
	<text transform="matrix(1 0 0 1 180.0225 663.0444)" fill="#414141" font-family="'Arial-BoldMT'" font-size="16">Puma</text>
	<rect x="180.022" y="719.514" fill="none" width="155.579" height="46.045"/>
	<text transform="matrix(1 0 0 1 180.0225 730.9688)" fill="#414141" font-family="'Arial-BoldMT'" font-size="16">Bay cat</text>
	<rect x="180.022" y="783.119" fill="none" width="155.579" height="46.047"/>
	<text transform="matrix(1 0 0 1 180.0225 794.5742)" fill="#414141" font-family="'Arial-BoldMT'" font-size="16">Caracal</text>
	<rect x="180.022" y="868.932" fill="none" width="155.579" height="46.047"/>
	<text transform="matrix(1 0 0 1 180.0225 880.3867)" fill="#414141" font-family="'Arial-BoldMT'" font-size="16">Leopard cat</text>
	<rect x="180.022" y="984.086" fill="none" width="155.579" height="46.045"/>
	<text transform="matrix(1 0 0 1 180.0225 995.541)" fill="#414141" font-family="'Arial-BoldMT'" font-size="16">Panthera</text>
	<g>
		<rect x="2" y="694.271" fill="#FFFFFF" width="112.741" height="44.652"/>
		<rect x="3.999" y="702.279" fill="none" width="105.742" height="33.941"/>
		<text transform="matrix(1 0 0 1 3.999 713.7349)"><tspan x="0" y="0" fill="#0C8080" font-family="'Arial-BoldMT'" font-size="16">One common</tspan><tspan x="0" y="17" fill="#0C8080" font-family="'Arial-BoldMT'" font-size="16">ancestor</tspan></text>
	</g>
	<rect x="2.82" y="50.767" fill="none" width="287.711" height="17.5"/>
	<text transform="matrix(1 0 0 1 2.8203 66.5195)" fill="#414141" font-family="'Arial-BoldMT'" font-size="22">The cat family tree</text>
	<rect x="657.602" y="125.893" fill="none" width="115" height="42.876"/>
	<text transform="matrix(1 0 0 1 677.4609 137.3486)"><tspan x="0" y="0" fill="#414141" font-family="'ArialMT'" font-size="16">Most recently </tspan><tspan x="-13.352" y="17" fill="#414141" font-family="'ArialMT'" font-size="16">formed species</tspan></text>
	<rect x="657.602" y="1179.062" fill="none" width="115" height="42.876"/>
	<text transform="matrix(1 0 0 1 667.6641 1190.5176)" fill="#414141" font-family="'ArialMT'" font-size="16">Oldest species</text>
	<rect x="156.602" y="223.192" fill="none" width="121.949" height="41.09"/>
	<text transform="matrix(1 0 0 1 156.6016 234.6475)"><tspan x="0" y="0" fill="#414141" font-family="'ArialMT'" font-size="16">Most recently </tspan><tspan x="0" y="17" fill="#414141" font-family="'ArialMT'" font-size="16">formed lineage</tspan></text>
	<rect x="156.602" y="1085.674" fill="none" width="121.949" height="41.09"/>
	<text transform="matrix(1 0 0 1 156.6016 1097.1299)" fill="#414141" font-family="'ArialMT'" font-size="16">Oldest lineage</text>
	<rect x="6.73" y="1220.16" fill="none" width="815.893" height="41.09"/>
	<text transform="matrix(1 0 0 1 6.7305 1231.6162)" fill="#414141" font-family="'ArialMT'" font-size="16">Source: Prof. Leslie Lyons</text>
	<rect x="3.647" y="125.698" fill="none" width="213.929" height="38.317"/>
	<text transform="matrix(1 0 0 1 3.6475 137.1533)"><tspan x="0" y="0" fill="#0C8080" font-family="'Arial-BoldMT'" font-size="16">One common ancestor</tspan><tspan x="0" y="17" fill="#414141" font-family="'ArialMT'" font-size="16">10.8 millions years ago (MYA)</tspan></text>
	<rect x="440.046" y="125.698" fill="none" width="167.282" height="38.317"/>
	<text transform="matrix(1 0 0 1 440.0459 137.1533)"><tspan x="0" y="0" fill="#0C8080" font-family="'Arial-BoldMT'" font-size="16">Your cat</tspan><tspan x="0" y="17" fill="#414141" font-family="'ArialMT'" font-size="16">Today</tspan></text>
	<rect x="233.286" y="125.698" fill="none" width="176.982" height="43.071"/>
	<text transform="matrix(1 0 0 1 233.2861 137.1533)"><tspan x="0" y="0" fill="#0C8080" font-family="'Arial-BoldMT'" font-size="16">Domestic cat ancestor</tspan><tspan x="0" y="17" fill="#414141" font-family="'ArialMT'" font-size="16">3.4 MYA</tspan></text>
	<rect x="766.727" y="207.792" fill="none" width="17" height="16.5"/>
	<text transform="matrix(1 0 0 1 766.7266 219.2485)" fill="#FFFFFF" font-family="'Arial-BoldMT'" font-size="16">C</text>
	<rect x="150.762" y="527.821" fill="none" width="17" height="16.5"/>
	<text transform="matrix(1 0 0 1 150.7617 539.2773)" fill="#FFFFFF" font-family="'Arial-BoldMT'" font-size="16">B</text>
	<rect x="5.396" y="671.314" fill="none" width="17" height="16.5"/>
	<text transform="matrix(1 0 0 1 5.3955 682.7705)" fill="#FFFFFF" font-family="'Arial-BoldMT'" font-size="16">A</text>
	<rect x="5.396" y="100.811" fill="none" width="17" height="16.5"/>
	<text transform="matrix(1 0 0 1 5.3955 112.2666)" fill="#FFFFFF" font-family="'Arial-BoldMT'" font-size="16">A</text>
	<rect x="303.903" y="101.373" fill="none" width="17" height="16.5"/>
	<text transform="matrix(1 0 0 1 303.9033 112.8291)" fill="#FFFFFF" font-family="'Arial-BoldMT'" font-size="16">B</text>
	<rect x="440.369" y="101.581" fill="none" width="17" height="16.5"/>
	<text transform="matrix(1 0 0 1 440.3687 113.0371)" fill="#FFFFFF" font-family="'Arial-BoldMT'" font-size="16">C</text>
</g>
</svg>
