<?xml version="1.0" encoding="utf-8"?>
<!-- Generator: Adobe Illustrator 16.0.4, SVG Export Plug-In . SVG Version: 6.00 Build 0)  -->
<!DOCTYPE svg PUBLIC "-//W3C//DTD SVG 1.1//EN" "http://www.w3.org/Graphics/SVG/1.1/DTD/svg11.dtd">
<svg version="1.1" xmlns="http://www.w3.org/2000/svg" xmlns:xlink="http://www.w3.org/1999/xlink" x="0px" y="0px" width="704px"
	 height="1332px" viewBox="0 0 704 1332" enable-background="new 0 0 704 1332" xml:space="preserve">
<g id="BACKGROUND">
	<rect fill="#FFFFFF" width="704" height="1332"/>
</g>
<g id="cat_evolution_line">
	<line fill="none" stroke="#00807F" stroke-width="4" stroke-miterlimit="10" x1="505.958" y1="98" x2="6.958" y2="98"/>
</g>
<g id="graph_1_">
	<path opacity="0.7" fill="none" stroke="#D7D7D6" stroke-width="20" stroke-miterlimit="10" d="M116.317,362.867
		c0,0,94.048-0.278,161.753-12.927c74.515-13.922,109.545-25.554,222.837-25.658"/>
	<path opacity="0.7" fill="none" stroke="#D7D7D6" stroke-width="20" stroke-miterlimit="10" d="M116.317,382.16
		c0,0,94.048-0.232,161.753-10.784c74.515-11.614,109.545-21.318,222.837-21.405"/>
	<path opacity="0.7" fill="none" stroke="#D7D7D6" stroke-width="20" stroke-miterlimit="10" d="M116.317,401.624
		c0,0,94.048-0.178,161.753-8.271c74.515-8.907,109.545-16.35,222.837-16.417"/>
	<path opacity="0.7" fill="none" stroke="#BFDEDD" stroke-width="20" stroke-miterlimit="10" d="M116.317,508.146
		c0,0,94.048-0.764,161.753-35.435c74.515-38.161,109.545-70.046,222.837-70.335"/>
	<path opacity="0.7" fill="none" stroke="#BFDEDD" stroke-width="20" stroke-miterlimit="10" d="M116.317,527.572
		c0,0,94.048-0.721,161.753-33.471c74.515-36.046,109.545-66.164,222.837-66.437"/>
	<path opacity="0.7" fill="none" stroke="#BFDEDD" stroke-width="20" stroke-miterlimit="10" d="M116.317,827.756
		c0,0,94.048-1.391,161.753-64.594c74.515-69.565,109.545-127.69,222.837-128.216"/>
	<path opacity="0.7" fill="none" stroke="#BFDEDD" stroke-width="20" stroke-miterlimit="10" d="M116.317,847.207
		c0,0,94.048-1.336,161.753-62.055c74.515-66.828,109.545-122.668,222.837-123.173"/>
	<path opacity="0.7" fill="none" stroke="#D7D7D6" stroke-width="20" stroke-miterlimit="10" d="M116.317,892.869
		c0,0,94.048-1.471,161.753-68.211c74.515-73.455,109.545-134.833,222.837-135.389"/>
	<path opacity="0.7" fill="none" stroke="#D7D7D6" stroke-width="20" stroke-miterlimit="10" d="M116.317,912.746
		c0,0,94.048-1.43,161.753-66.371c74.515-71.477,109.545-131.199,222.837-131.74"/>
	<path opacity="0.7" fill="none" stroke="#BFDEDD" stroke-width="20" stroke-miterlimit="10" d="M116.317,997.803
		c0,0,94.048-3.539,161.753-164.285c74.515-176.926,109.545-324.758,222.837-326.097"/>
	<path opacity="0.7" fill="none" stroke="#BFDEDD" stroke-width="20" stroke-miterlimit="10" d="M116.317,1017.477
		c0,0,94.048-3.5,161.753-162.367c74.515-174.858,109.545-320.963,222.837-322.285"/>
	<path opacity="0.7" fill="none" stroke="#BFDEDD" stroke-width="20" stroke-miterlimit="10" d="M116.317,1037.256
		c0,0,94.048-1.963,161.753-91.086c74.515-98.096,109.545-180.061,222.837-180.803"/>
	<path opacity="0.7" fill="none" stroke="#BFDEDD" stroke-width="20" stroke-miterlimit="10" d="M116.317,1056.133
		c0,0,94.048-1.92,161.753-89.131c74.515-95.99,109.545-176.195,222.837-176.922"/>
	<path opacity="0.7" fill="none" stroke="#BFDEDD" stroke-width="20" stroke-miterlimit="10" d="M116.317,1075.691
		c0,0,94.048-1.863,161.753-86.486c74.515-93.139,109.545-170.965,222.837-171.668"/>
	<path opacity="0.7" fill="none" stroke="#BFDEDD" stroke-width="20" stroke-miterlimit="10" d="M116.317,1095.234
		c0,0,94.048-1.818,161.753-84.342c74.515-90.832,109.545-166.729,222.837-167.416"/>
	<path opacity="0.7" fill="none" stroke="#BFDEDD" stroke-width="20" stroke-miterlimit="10" d="M116.317,1115.02
		c0,0,94.048-1.389,161.753-64.416c74.515-69.373,109.545-127.338,222.837-127.863"/>
	<path opacity="0.7" fill="none" stroke="#D7D7D6" stroke-width="20" stroke-miterlimit="10" d="M116.317,932.436
		c0,0,94.048-0.443,161.753-20.561c74.515-22.145,109.545-40.646,222.837-40.812"/>
	<path opacity="0.7" fill="none" stroke="#D7D7D6" stroke-width="20" stroke-miterlimit="10" d="M116.317,612.49
		c0,0,94.048-2.266,161.753-105.149c74.515-113.238,109.545-207.855,222.837-208.711"/>
	<path opacity="0.7" fill="none" stroke="#D7D7D6" stroke-width="20" stroke-miterlimit="10" d="M116.317,461.168
		c0,0,94.048,0.891,161.753,41.361c74.515,44.542,109.545,81.76,222.837,82.097"/>
	<path opacity="0.7" fill="none" stroke="#D7D7D6" stroke-width="20" stroke-miterlimit="10" d="M116.317,421.253
		c0,0,94.048,0.237,161.753,11.013c74.515,11.86,109.545,21.77,222.837,21.859"/>
	<path opacity="0.7" fill="none" stroke="#D7D7D6" stroke-width="20" stroke-miterlimit="10" d="M116.317,441.203
		c0,0,94.048,0.284,161.753,13.166c74.515,14.177,109.545,26.024,222.837,26.131"/>
	<path opacity="0.7" fill="none" stroke="#BFDEDD" stroke-width="20" stroke-miterlimit="10" d="M116.317,546.767
		c0,0,94.048,0.099,161.753,4.582c74.515,4.933,109.545,9.055,222.837,9.092"/>
	<path opacity="0.7" fill="none" stroke="#D7D7D6" stroke-width="20" stroke-miterlimit="10" d="M116.317,480.882
		c0,0,94.048,0.942,161.753,43.705c74.515,47.065,109.545,86.391,222.837,86.747"/>
	<path opacity="0.7" fill="none" stroke="#BFDEDD" stroke-width="20" stroke-miterlimit="10" d="M116.317,566.577
		c0,0,94.048,2.762,161.753,128.175c74.515,138.031,109.545,253.363,222.837,254.408"/>
	<path opacity="0.7" fill="none" stroke="#D7D7D6" stroke-width="20" stroke-miterlimit="10" d="M116.317,631.962
		c0,0,94.048,0.781,161.753,36.243c74.515,39.03,109.545,71.641,222.837,71.938"/>
	<path opacity="0.7" fill="none" stroke="#D7D7D6" stroke-width="20" stroke-miterlimit="10" d="M116.317,651.228
		c0,0,94.048,1.767,161.753,81.95c74.515,88.254,109.545,161.992,222.837,162.66"/>
	<path opacity="0.7" fill="none" stroke="#D7D7D6" stroke-width="20" stroke-miterlimit="10" d="M116.317,670.965
		c0,0,94.048,2.195,161.753,101.834c74.515,109.668,109.545,201.299,222.837,202.129"/>
	<path opacity="0.7" fill="none" stroke="#BFDEDD" stroke-width="20" stroke-miterlimit="10" d="M116.317,866.143
		c0,0,94.048,2.283,161.753,105.947c74.515,114.1,109.545,209.43,222.837,210.293"/>
	<path opacity="0.7" fill="none" stroke="#D7D7D6" stroke-width="20" stroke-miterlimit="10" d="M116.317,951.955
		c0,0,94.048,0.352,161.753,16.307c74.515,17.562,109.545,32.236,222.837,32.369"/>
	<path opacity="0.7" fill="none" stroke="#D7D7D6" stroke-width="20" stroke-miterlimit="10" d="M116.317,971.803
		c0,0,94.048,1.701,161.753,78.867c74.515,84.941,109.545,155.906,222.837,156.549"/>
	<path opacity="0.7" fill="none" stroke="#BFDEDD" stroke-width="20" stroke-miterlimit="10" d="M116.317,698.119
		c0,0,94.048,2.363,161.753,109.68c74.515,118.117,109.545,216.809,222.837,217.703"/>
	<path opacity="0.7" fill="none" stroke="#BFDEDD" stroke-width="20" stroke-miterlimit="10" d="M116.317,717.111
		c0,0,94.048,2.42,161.753,112.238c74.515,120.871,109.545,221.865,222.837,222.779"/>
	<path opacity="0.7" fill="none" stroke="#BFDEDD" stroke-width="20" stroke-miterlimit="10" d="M116.317,736.695
		c0,0,94.048,2.471,161.753,114.607c74.515,123.426,109.545,226.549,222.837,227.484"/>
	<path opacity="0.7" fill="none" stroke="#D7D7D6" stroke-width="20" stroke-miterlimit="10" d="M116.317,762.758
		c0,0,94.048,2.471,161.753,114.607c74.515,123.424,109.545,226.547,222.837,227.482"/>
	<path opacity="0.7" fill="none" stroke="#D7D7D6" stroke-width="20" stroke-miterlimit="10" d="M116.317,782.803
		c0,0,94.048,2.502,161.753,116.066c74.515,124.996,109.545,229.432,222.837,230.379"/>
	<path opacity="0.7" fill="none" stroke="#D7D7D6" stroke-width="20" stroke-miterlimit="10" d="M116.317,802.705
		c0,0,94.048,2.562,161.753,118.859c74.515,128.006,109.545,234.955,222.837,235.924"/>
	<path fill="none" stroke="#008080" stroke-width="20" stroke-miterlimit="10" d="M500.907,273.042
		c-113.292,0.873-148.322,97.346-222.837,212.807c-67.705,104.902-161.753,107.212-161.753,107.212"/>
	<path fill="none" stroke="#008080" stroke-miterlimit="10" d="M7.087,738.422c0,0,48.871,3.812,48.871-132.003
		c0-137.43,0.664-221.161,60.553-245.197"/>
	<g>
		<path fill="#008080" d="M116.682,603.071c0,0-0.769-0.027-2.208-0.077c-0.562,0.009-1.17-0.043-2.052-0.009
			c-0.866,0.011-1.845,0.061-2.923,0.152c-2.144,0.204-4.679,0.59-7.298,1.507c-2.622,0.917-5.334,2.343-7.951,4.678
			c-2.606,2.337-5.121,5.627-7.283,9.789c-2.187,4.137-4.035,9.06-5.673,14.378c-3.27,10.672-5.715,22.889-8.829,35.064
			c-1.558,6.093-3.284,12.192-5.332,18.106c-2.02,5.833-4.432,11.696-7.194,16.973c-2.766,5.313-5.927,10.208-9.391,14.476
			c-3.45,4.277-7.222,7.905-11.059,10.757c-3.825,2.865-7.664,5.008-11.234,6.453c-3.562,1.467-6.81,2.325-9.512,2.781
			c-2.702,0.467-4.852,0.584-6.311,0.58c-1.46-0.001-2.231-0.1-2.231-0.1s0.778,0.025,2.222-0.11
			c1.442-0.131,3.551-0.448,6.146-1.153c2.597-0.693,5.67-1.827,8.956-3.559c3.295-1.709,6.755-4.099,10.109-7.143
			c3.366-3.031,6.581-6.769,9.435-11.082c2.867-4.304,5.392-9.162,7.516-14.391c2.14-5.265,3.823-10.724,5.253-16.598
			c1.348-5.811,2.384-11.811,3.269-17.871c1.783-12.131,2.899-24.492,5.196-36.406c1.171-5.954,2.644-11.814,4.855-17.392
			c2.176-5.563,5.208-10.862,9.083-15.206c3.864-4.357,8.501-7.569,12.811-9.622c4.33-2.081,8.287-3.118,11.486-3.781
			c1.603-0.318,3.031-0.545,4.266-0.697c1.215-0.176,2.401-0.248,3.289-0.337c1.466-0.103,2.247-0.158,2.247-0.158L116.682,603.071z
			"/>
	</g>
	<path fill="none" stroke="#008080" stroke-miterlimit="10" d="M7.087,740.26c0,0,48.871-3.812,48.871,132.002
		c0,137.43,0.664,221.161,60.553,245.199"/>
	<g>
		<g>
			
				<line fill="none" stroke="#008080" stroke-width="3" stroke-linecap="round" stroke-linejoin="round" x1="500.958" y1="228.006" x2="500.958" y2="228.006"/>
			
				<line fill="none" stroke="#008080" stroke-width="3" stroke-linecap="round" stroke-linejoin="round" stroke-dasharray="0,7" x1="500.458" y1="235" x2="500.458" y2="1211"/>
			
				<line fill="none" stroke="#008080" stroke-width="3" stroke-linecap="round" stroke-linejoin="round" x1="500.958" y1="1214.249" x2="500.958" y2="1214.249"/>
			<g>
				<polygon fill="#008080" points="496.05,231.982 496.929,232.801 500.957,228.467 504.985,232.801 505.864,231.982 
					500.957,226.705 				"/>
			</g>
			<g>
				<rect x="496.958" y="1210" fill="#008080" width="8" height="8"/>
			</g>
		</g>
	</g>
	<g>
		<g>
			
				<line fill="none" stroke="#008080" stroke-width="3" stroke-linecap="round" stroke-linejoin="round" x1="116.958" y1="325.583" x2="116.958" y2="325.583"/>
			
				<line fill="none" stroke="#008080" stroke-width="3" stroke-linecap="round" stroke-linejoin="round" stroke-dasharray="0,7" x1="116.458" y1="333" x2="116.458" y2="1121"/>
			
				<line fill="none" stroke="#008080" stroke-width="3" stroke-linecap="round" stroke-linejoin="round" x1="116.958" y1="1124.485" x2="116.958" y2="1124.485"/>
			<g>
				<polygon fill="#008080" points="112.05,329.559 112.929,330.378 116.957,326.043 120.985,330.378 121.864,329.559 
					116.957,324.282 				"/>
			</g>
			<g>
				<rect x="112.958" y="1120" fill="#008080" width="8" height="8"/>
			</g>
		</g>
	</g>
	<circle fill="#004B4B" cx="11.576" cy="737.92" r="9.895"/>
	<circle fill="#004B4B" cx="116.317" cy="593.384" r="9.895"/>
	<circle fill="#004B4B" cx="500.907" cy="273.042" r="9.895"/>
	<circle fill="#004B4B" cx="10.576" cy="97.416" r="9.895"/>
	<circle fill="#004B4B" cx="346.646" cy="97.416" r="9.895"/>
	<circle fill="#004B4B" cx="503.196" cy="97.416" r="9.895"/>
	<circle fill="#BEDFDE" cx="487.263" cy="298.63" r="3.75"/>
	<circle fill="#BEDFDE" cx="487.263" cy="324.282" r="3.75"/>
	<circle fill="#BEDFDE" cx="487.263" cy="349.971" r="3.75"/>
	<circle fill="#BEDFDE" cx="487.263" cy="376.936" r="3.75"/>
	<circle fill="#43A09E" cx="487.263" cy="688.799" r="3.75"/>
	<circle fill="#43A09E" cx="487.263" cy="714.164" r="3.75"/>
	<circle fill="#43A09E" cx="487.263" cy="739.816" r="3.75"/>
	<circle fill="#43A09E" cx="487.263" cy="765.506" r="3.75"/>
	<circle fill="#43A09E" cx="487.263" cy="792.471" r="3.75"/>
	<circle fill="#43A09E" cx="487.263" cy="819.227" r="3.75"/>
	<circle fill="#43A09E" cx="487.263" cy="844.592" r="3.75"/>
	<circle fill="#43A09E" cx="487.263" cy="870.242" r="3.75"/>
	<circle fill="#43A09E" cx="487.263" cy="895.934" r="3.75"/>
	<circle fill="#43A09E" cx="487.263" cy="922.896" r="3.75"/>
	<circle fill="#006867" cx="487.263" cy="1000.766" r="3.75"/>
	<circle fill="#006867" cx="487.263" cy="1026.416" r="3.75"/>
	<circle fill="#006867" cx="487.263" cy="1052.105" r="3.75"/>
	<circle fill="#006867" cx="487.263" cy="1079.07" r="3.75"/>
	<circle fill="#7CC0BE" cx="487.263" cy="403.426" r="3.75"/>
	<circle fill="#7CC0BE" cx="487.263" cy="428.791" r="3.75"/>
	<circle fill="#7CC0BE" cx="487.263" cy="454.442" r="3.75"/>
	<circle fill="#7CC0BE" cx="487.263" cy="480.132" r="3.75"/>
	<circle fill="#7CC0BE" cx="487.263" cy="507.097" r="3.75"/>
	<circle fill="#7CC0BE" cx="487.263" cy="532.791" r="3.75"/>
	<circle fill="#7CC0BE" cx="487.263" cy="558.156" r="3.75"/>
	<circle fill="#7CC0BE" cx="487.263" cy="583.808" r="3.75"/>
	<circle fill="#7CC0BE" cx="487.263" cy="609.497" r="3.75"/>
	<circle fill="#7CC0BE" cx="487.263" cy="636.462" r="3.75"/>
	<circle fill="#7CC0BE" cx="487.263" cy="661.979" r="3.75"/>
	<circle fill="#004B4B" cx="487.263" cy="1103.713" r="3.75"/>
	<circle fill="#004B4B" cx="487.263" cy="1129.363" r="3.75"/>
	<circle fill="#004B4B" cx="487.263" cy="1155.053" r="3.75"/>
	<circle fill="#004B4B" cx="487.263" cy="1182.018" r="3.75"/>
	<circle fill="#004B4B" cx="487.263" cy="1207.535" r="3.75"/>
	<circle fill="#0C8080" cx="487.263" cy="949.197" r="3.75"/>
	<circle fill="#0C8080" cx="487.263" cy="974.715" r="3.75"/>
	<rect x="495.083" y="267.792" fill="none" width="17" height="16.5"/>
	<text transform="matrix(1 0 0 1 495.083 279.2485)" fill="#FFFFFF" font-family="'Arial-BoldMT'" font-size="16">C</text>
</g>
<g id="text">
	<rect x="522.043" y="265.738" fill="none" width="181" height="954.273"/>
	<text transform="matrix(1 0 0 1 522.043 277.1943)"><tspan x="0" y="0" fill="#008080" font-family="'Arial-BoldMT'" font-size="16">Domestic cat</tspan><tspan x="0" y="26" fill="#414141" font-family="'ArialMT'" font-size="16">Wildcat</tspan><tspan x="0" y="52" fill="#414141" font-family="'ArialMT'" font-size="16">Geoffrey’s cat</tspan><tspan x="0" y="78" fill="#414141" font-family="'ArialMT'" font-size="16">Kodkod</tspan><tspan x="0" y="104" fill="#414141" font-family="'ArialMT'" font-size="16">Tigrina</tspan><tspan x="0" y="130" fill="#414141" font-family="'ArialMT'" font-size="16">Iberian lynx</tspan><tspan x="0" y="156" fill="#414141" font-family="'ArialMT'" font-size="16">Eurasian lynx</tspan><tspan x="0" y="182" fill="#414141" font-family="'ArialMT'" font-size="16">Margay</tspan><tspan x="0" y="208" fill="#414141" font-family="'ArialMT'" font-size="16">Ocelot</tspan><tspan x="0" y="234" fill="#414141" font-family="'ArialMT'" font-size="16">Clouded leopard</tspan><tspan x="0" y="260" fill="#414141" font-family="'ArialMT'" font-size="16">Bornean clouded leopard</tspan><tspan x="0" y="286" fill="#414141" font-family="'ArialMT'" font-size="16">Canada lynx</tspan><tspan x="0" y="312" fill="#414141" font-family="'ArialMT'" font-size="16">Andean mountain cat</tspan><tspan x="0" y="338" fill="#414141" font-family="'ArialMT'" font-size="16">Pampas cat</tspan><tspan x="0" y="364" fill="#414141" font-family="'ArialMT'" font-size="16">Caracal</tspan><tspan x="0" y="390" fill="#414141" font-family="'ArialMT'" font-size="16">African golden cat</tspan><tspan x="0" y="416" fill="#414141" font-family="'ArialMT'" font-size="16">Asian leopard cat</tspan><tspan x="0" y="442" fill="#414141" font-family="'ArialMT'" font-size="16">Fishing cat</tspan><tspan x="0" y="468" fill="#414141" font-family="'ArialMT'" font-size="16">Sand cat</tspan><tspan x="0" y="494" fill="#414141" font-family="'ArialMT'" font-size="16">Tiger</tspan><tspan x="0" y="520" fill="#414141" font-family="'ArialMT'" font-size="16">Snow leopard</tspan><tspan x="0" y="546" fill="#414141" font-family="'ArialMT'" font-size="16">Lion</tspan><tspan x="0" y="572" fill="#414141" font-family="'ArialMT'" font-size="16">Leopard</tspan><tspan x="0" y="598" fill="#414141" font-family="'ArialMT'" font-size="16">Flat-headed cat</tspan><tspan x="0" y="624" fill="#414141" font-family="'ArialMT'" font-size="16">Black-footed cat</tspan><tspan x="0" y="650" fill="#414141" font-family="'ArialMT'" font-size="16">Jaguar</tspan><tspan x="0" y="676" fill="#414141" font-family="'ArialMT'" font-size="16">Bobcat</tspan><tspan x="0" y="702" fill="#414141" font-family="'ArialMT'" font-size="16">Jungle cat</tspan><tspan x="0" y="728" fill="#414141" font-family="'ArialMT'" font-size="16">Rusty-spotted cat</tspan><tspan x="0" y="754" fill="#414141" font-family="'ArialMT'" font-size="16">Puma</tspan><tspan x="0" y="780" fill="#414141" font-family="'ArialMT'" font-size="16">Jaguarundi</tspan><tspan x="0" y="806" fill="#414141" font-family="'ArialMT'" font-size="16">Cheetah</tspan><tspan x="0" y="832" fill="#414141" font-family="'ArialMT'" font-size="16">Asian golden cat</tspan><tspan x="0" y="858" fill="#414141" font-family="'ArialMT'" font-size="16">Bornean bay cat</tspan><tspan x="0" y="884" fill="#414141" font-family="'ArialMT'" font-size="16">Marbled cat</tspan><tspan x="0" y="910" fill="#414141" font-family="'ArialMT'" font-size="16">Serval</tspan><tspan x="0" y="936" fill="#414141" font-family="'ArialMT'" font-size="16">Pallas’s cat</tspan></text>
	<rect x="2.679" y="1271.017" fill="none" width="701.321" height="20.545"/>
	<text transform="matrix(1 0 0 1 2.6787 1282.4727)" fill="#414141" font-family="'ArialMT'" font-size="16">Source: Prof. Leslie Lyons</text>
	<rect x="283.958" y="336.989" fill="none" width="189.668" height="68.436"/>
	<text transform="matrix(1 0 0 1 414.9385 348.4453)"><tspan x="0" y="0" fill="#414141" font-family="'ArialMT'" font-size="16">1 million</tspan><tspan x="-11.578" y="17" fill="#414141" font-family="'ArialMT'" font-size="16">years ago </tspan><tspan x="13.359" y="34" fill="#414141" font-family="'ArialMT'" font-size="16">(MYA)</tspan></text>
	<rect x="369.379" y="657.454" fill="none" width="104.247" height="16.55"/>
	<text transform="matrix(1 0 0 1 425.6104 668.9097)" fill="#414141" font-family="'ArialMT'" font-size="16">2 MYA</text>
	<rect x="369.379" y="918.371" fill="none" width="104.247" height="16.551"/>
	<text transform="matrix(1 0 0 1 425.6104 929.8262)" fill="#414141" font-family="'ArialMT'" font-size="16">3 MYA</text>
	<rect x="369.379" y="971.018" fill="none" width="104.247" height="16.551"/>
	<text transform="matrix(1 0 0 1 425.6104 982.4727)" fill="#414141" font-family="'ArialMT'" font-size="16">4 MYA</text>
	<rect x="372.379" y="1074.545" fill="none" width="104.247" height="16.551"/>
	<text transform="matrix(1 0 0 1 428.6104 1086)" fill="#414141" font-family="'ArialMT'" font-size="16">5 MYA</text>
	<rect x="372.379" y="1203.01" fill="none" width="104.247" height="16.551"/>
	<text transform="matrix(1 0 0 1 428.6104 1214.4648)" fill="#414141" font-family="'ArialMT'" font-size="16">6 MYA</text>
	<rect x="385.958" y="185.893" fill="none" width="115" height="42.876"/>
	<text transform="matrix(1 0 0 1 405.8174 197.3486)"><tspan x="0" y="0" fill="#414141" font-family="'ArialMT'" font-size="16">Most recently </tspan><tspan x="-13.352" y="17" fill="#414141" font-family="'ArialMT'" font-size="16">formed species</tspan></text>
	<rect x="385.958" y="1239.062" fill="none" width="115" height="42.876"/>
	<text transform="matrix(1 0 0 1 396.0205 1250.5176)" fill="#414141" font-family="'ArialMT'" font-size="16">Oldest species</text>
	<rect x="140.379" y="624.919" fill="none" width="249.579" height="49.085"/>
	<text transform="matrix(1 0 0 1 140.3789 636.3745)" fill="#0C8080" font-family="'Arial-BoldMT'" font-size="16">Domestic cat ancestor</text>
	<rect x="140.379" y="530.581" fill="none" width="155.579" height="46.046"/>
	<text transform="matrix(1 0 0 1 140.3789 542.0361)" fill="#414141" font-family="'Arial-BoldMT'" font-size="16">Lynx</text>
	<rect x="140.379" y="409.18" fill="none" width="230.246" height="46.938"/>
	<text transform="matrix(1 0 0 1 140.3789 420.6357)" fill="#414141" font-family="'Arial-BoldMT'" font-size="16">Ocelot</text>
	<rect x="140.379" y="711.589" fill="none" width="155.579" height="46.046"/>
	<text transform="matrix(1 0 0 1 140.3789 723.0449)" fill="#414141" font-family="'Arial-BoldMT'" font-size="16">Puma</text>
	<rect x="140.379" y="779.514" fill="none" width="155.579" height="46.045"/>
	<text transform="matrix(1 0 0 1 140.3789 790.9688)" fill="#414141" font-family="'Arial-BoldMT'" font-size="16">Bay cat</text>
	<rect x="140.379" y="843.119" fill="none" width="155.579" height="46.047"/>
	<text transform="matrix(1 0 0 1 140.3789 854.5742)" fill="#414141" font-family="'Arial-BoldMT'" font-size="16">Caracal</text>
	<rect x="140.379" y="928.932" fill="none" width="155.579" height="46.047"/>
	<text transform="matrix(1 0 0 1 140.3789 940.3867)" fill="#414141" font-family="'Arial-BoldMT'" font-size="16">Leopard cat</text>
	<rect x="140.379" y="1044.086" fill="none" width="155.579" height="46.045"/>
	<text transform="matrix(1 0 0 1 140.3789 1055.541)" fill="#414141" font-family="'Arial-BoldMT'" font-size="16">Panthera</text>
	<g>
		<rect x="2.356" y="754.271" fill="#FFFFFF" width="112.741" height="44.652"/>
		<rect x="4.355" y="762.279" fill="none" width="105.742" height="33.941"/>
		<text transform="matrix(1 0 0 1 4.3555 773.7344)"><tspan x="0" y="0" fill="#0C8080" font-family="'Arial-BoldMT'" font-size="16">One common</tspan><tspan x="0" y="17" fill="#0C8080" font-family="'Arial-BoldMT'" font-size="16">ancestor</tspan></text>
	</g>
	<rect x="116.958" y="283.192" fill="none" width="121.949" height="41.09"/>
	<text transform="matrix(1 0 0 1 116.958 294.6475)"><tspan x="0" y="0" fill="#414141" font-family="'ArialMT'" font-size="16">Most recently </tspan><tspan x="0" y="17" fill="#414141" font-family="'ArialMT'" font-size="16">formed lineage</tspan></text>
	<rect x="116.958" y="1145.674" fill="none" width="121.949" height="41.09"/>
	<text transform="matrix(1 0 0 1 116.958 1157.1299)" fill="#414141" font-family="'ArialMT'" font-size="16">Oldest lineage</text>
	<rect x="111.118" y="587.821" fill="none" width="17" height="16.5"/>
	<text transform="matrix(1 0 0 1 111.1182 599.2773)" fill="#FFFFFF" font-family="'Arial-BoldMT'" font-size="16">B</text>
	<rect x="5.752" y="731.314" fill="none" width="17" height="16.5"/>
	<text transform="matrix(1 0 0 1 5.752 742.7705)" fill="#FFFFFF" font-family="'Arial-BoldMT'" font-size="16">A</text>
	<rect x="2.177" y="40.767" fill="none" width="287.711" height="17.5"/>
	<text transform="matrix(1 0 0 1 2.1768 56.5195)" fill="#414141" font-family="'Arial-BoldMT'" font-size="22">The cat family tree</text>
	<rect x="3.004" y="115.698" fill="none" width="213.929" height="38.317"/>
	<text transform="matrix(1 0 0 1 3.0039 127.1533)"><tspan x="0" y="0" fill="#0C8080" font-family="'Arial-BoldMT'" font-size="16">One common ancestor</tspan><tspan x="0" y="17" fill="#414141" font-family="'ArialMT'" font-size="16">10.8 millions years ago (MYA)</tspan></text>
	<rect x="493.302" y="115.698" fill="none" width="167.282" height="38.317"/>
	<text transform="matrix(1 0 0 1 493.3018 127.1533)"><tspan x="0" y="0" fill="#0C8080" font-family="'Arial-BoldMT'" font-size="16">Your cat</tspan><tspan x="0" y="17" fill="#414141" font-family="'ArialMT'" font-size="16">Today</tspan></text>
	<rect x="258.05" y="115.698" fill="none" width="176.982" height="43.071"/>
	<text transform="matrix(1 0 0 1 258.0498 127.1533)"><tspan x="0" y="0" fill="#0C8080" font-family="'Arial-BoldMT'" font-size="16">Domestic cat ancestor</tspan><tspan x="0" y="17" fill="#414141" font-family="'ArialMT'" font-size="16">3.4 MYA</tspan></text>
	<rect x="4.752" y="90.811" fill="none" width="17" height="16.5"/>
	<text transform="matrix(1 0 0 1 4.752 102.2666)" fill="#FFFFFF" font-family="'Arial-BoldMT'" font-size="16">A</text>
	<rect x="341.26" y="91.373" fill="none" width="17" height="16.5"/>
	<text transform="matrix(1 0 0 1 341.2598 102.8291)" fill="#FFFFFF" font-family="'Arial-BoldMT'" font-size="16">B</text>
	<rect x="497.394" y="91.581" fill="none" width="17" height="16.5"/>
	<text transform="matrix(1 0 0 1 497.3936 103.0371)" fill="#FFFFFF" font-family="'Arial-BoldMT'" font-size="16">C</text>
</g>
</svg>
